<svg fill="none" height="32" viewBox="0 0 32 32" width="32" xmlns="http://www.w3.org/2000/svg"><circle cx="16" cy="16" fill="#01ff66" r="16"/><path clip-rule="evenodd" d="m15.2158 25.2729c-.0224.0223-.0583.0223-.1301.0223s-.1078 0-.1301-.0223-.0223-.0583-.0223-.1301v-1.5245c-.0582-.001-.1162-.0027-.174-.0053-2.9506-.1266-5.4253-2.2563-6.32255-5.1831-.23387-.7611-.36058-1.5775-.36058-2.43 0-.8524.12671-1.6689.36059-2.4299.89727-2.9268 3.37204-5.05652 6.32264-5.18313.0578-.00254.1158-.00431.1739-.00531v-1.52447c0-.07183 0-.10775.0223-.13006.0223-.02232.0583-.02232.1301-.02232s.1077 0 .1301.02232c.0223.02231.0223.05823.0223.13006v1.52381h1.6762v-1.52381c0-.07183 0-.10775.0223-.13006.0223-.02232.0582-.02232.13-.02232.0719 0 .1078 0 .1301.02232.0223.02231.0223.05823.0223.13006v1.52381h3.0476c.2874 0 .431 0 .5203.08927.0893.08926.0893.23292.0893.52026v3.89597c-.4391-1.1924-1.6061-3.60152-3.6572-4.00736v14.24186c2.0511-.4059 3.2181-2.815 3.6572-4.0074v3.896c0 .2873 0 .431-.0893.5202-.0893.0893-.2329.0893-.5203.0893h-3.0476v1.5238c0 .0718 0 .1078-.0223.1301s-.0582.0223-.1301.0223c-.0718 0-.1077 0-.13-.0223s-.0223-.0583-.0223-.1301v-1.5238h-1.6762v1.5238c0 .0718 0 .1078-.0223.1301zm-.2825-2.8117v-12.92246c-1.2427 1.16226-2.216 3.61436-2.216 6.46116 0 2.8469.9733 5.299 2.216 6.4613zm.3048.2549c.4033.2987.8278.4625 1.2514.4633h.137c.0135 0 .027-.0001.0405-.0003.0837-.0013.1661-.006.2473-.0137v-14.33091c-.0811-.00774-.1635-.01236-.2472-.01371-.0135-.00019-.0271-.00029-.0407-.00031h-.1368c-.4236.00084-.8481.16458-1.2515.46329z" fill="#101010" fill-rule="evenodd"/></svg>