<svg viewBox="0 0 3000 3000" xmlns="http://www.w3.org/2000/svg"><circle cx="1500" cy="1500" fill="#161e53" r="1183.97"/><path d="m1905.6 1096.03 82.98-220.81h-136.32l-54.74 145.21c-29.99-15.74-61.5-28.41-94.03-37.81l40.48-107.52h-136.32l-33.07 87.72c-4.33 0-8.71-.24-13.13-.24h-158.4c-21.04-2.64-41.76-7.38-61.85-14.17-6.99-2.34-13.81-4.83-20.54-7.62l-44.99 119.25-348.27 924.26h262.33l-53.02 140.59h136.32l53.05-140.59h108.32l-53.02 140.59h136.32l53.02-140.68c281.95-4.81 506.61-237.27 501.8-519.22-2.4-140.75-62.8-274.26-166.93-368.98zm-793.84 760.73 288.94-766.42c12.98 1.21 25.99 1.75 39 1.75s26.67-.62 39.65-1.87h47.42l-288.91 766.54zm262.33 0 284.5-754.18c32.82 8.65 64.35 21.6 93.77 38.53l-269.98 715.66h-108.29zm458.63-112.35c-57.39 57.78-131.83 95.6-212.34 107.87l235.39-624.32c127.27 152.13 117.27 376.27-23.06 516.45z" fill="#ffbb51"/></svg>