<svg fill="none" height="64" viewBox="0 0 64 64" width="64" xmlns="http://www.w3.org/2000/svg" xmlns:xlink="http://www.w3.org/1999/xlink"><clipPath id="a"><path d="m0 0h64v64h-64z"/></clipPath><mask id="b" height="64" maskUnits="userSpaceOnUse" width="64" x="0" y="0"><rect fill="#d9d9d9" height="64" rx="32" width="64"/></mask><g clip-path="url(#a)"><g mask="url(#b)"><rect fill="#fff" height="64" rx="32" width="64"/><path clip-rule="evenodd" d="m55.625 32c0 13.0477-10.5773 23.625-23.625 23.625s-23.625-10.5773-23.625-23.625 10.5773-23.625 23.625-23.625 23.625 10.5773 23.625 23.625zm4.375 0c0 15.464-12.536 28-28 28s-28-12.536-28-28 12.536-28 28-28 28 12.536 28 28zm-25.8125-16.3679v-3.3196h-4.375v3.2232c-.3279.055-.6542.1239-.9779.207-1.9688.505-3.7731 1.5133-5.2383 2.9254-1.4652 1.4119-2.5416 3.1798-3.1266 5.1313-.5849 1.9514-.659 4.0215-.215 6.01.444 1.9886 1.3912 3.8293 2.7513 5.3432 1.188 1.3226 2.6561 2.3567 4.293 3.0278.0478.1963.1107.3895.1888.5777.2984.7196.8035 1.3346 1.4515 1.767.648.4325 1.4097.663 2.1887.6624 1.043-.0016 2.0428-.4166 2.7804-1.1541.7375-.7376 1.1525-1.7374 1.1541-2.7804.0006-.779-.2299-1.5407-.6624-2.1888-.4324-.6479-1.0474-1.153-1.767-1.4514s-1.5115-.3766-2.2756-.2248c-.5627.1118-1.0917.3448-1.5514.6798-.9658-.4216-1.8346-1.0475-2.5456-1.8389-.8567-.9537-1.4552-2.1153-1.7359-3.3728-.2808-1.2575-.234-2.5669.1359-3.8005.3698-1.2336 1.0495-2.3485 1.9717-3.2374.9222-.8887 2.0555-1.5212 3.2895-1.8378 1.2339-.3165 2.5281-.3068 3.7572.0284 1.2292.3352 2.353.9848 3.2619 1.8875.909.9026 1.5721 2.0278 1.9234 3.267l4.2091-1.1935c-.5558-1.9601-1.6058-3.7439-3.0496-5.1778-1.444-1.434-3.2328-2.4693-5.1939-3.0041-.2129-.0581-.4271-.11-.6423-.1558zm-2.625 15.7117c-.8653 0-1.7111-.2566-2.4306-.7374-.7195-.4807-1.2803-1.164-1.6114-1.9634s-.4177-1.6791-.2489-2.5277c.1688-.8488.5854-1.6283 1.1973-2.2401.6118-.6119 1.3914-1.0286 2.2401-1.1974.8487-.1687 1.7283-.0821 2.5277.249s1.4827.8919 1.9634 1.6114c.3008.4499.5138.9494.6311 1.4721 1.1155.459 2.1592 1.0824 3.0924 1.8538 1.5741 1.3012 2.7816 2.9806 3.4976 4.8796.7161 1.8994.9138 3.9489.5719 5.9474-.342 1.9982-1.2104 3.8702-2.5138 5.4361-1.3031 1.5654-2.9956 2.7711-4.9089 3.5074-.5933.2283-1.2021.4093-1.8204.5423v3.5106h-4.375v-3.366c-1.9721-.2894-3.8441-1.0541-5.4431-2.2309-1.6461-1.2113-2.9489-2.82-3.7742-4.6752l3.9971-1.7783c.5117 1.1501 1.3256 2.1611 2.3702 2.9299 1.045.7691 2.2837 1.2677 3.5968 1.4414 1.3133.1738 2.6495.0156 3.8773-.4569 1.2275-.4724 2.2999-1.2408 3.1175-2.2232.8175-.9819 1.3537-2.1451 1.5641-3.3751.2105-1.2297.0895-2.4919-.3532-3.6662-.443-1.1749-1.1951-2.2273-2.1913-3.0508-.497-.4108-1.046-.7573-1.6328-1.032-.8029.73-1.8507 1.1379-2.9409 1.1396z" fill="#000" fill-rule="evenodd"/></g></g></svg>