<svg viewBox="0 0 1000 1000" xmlns="http://www.w3.org/2000/svg"><circle cx="500" cy="500" fill="#ffbf42" r="465.83"/><path d="m659.58 341.06 32.65-86.88h-53.64l-21.54 57.13c-11.8-6.19-24.2-11.18-37-14.88l15.93-42.3h-53.64l-13.01 34.51c-1.7 0-3.43-.09-5.17-.09h-62.32c-8.28-1.04-16.43-2.91-24.33-5.57-2.75-.92-5.43-1.9-8.08-3l-17.7 46.92-137.03 363.65h103.21l-20.86 55.31h53.64l20.87-55.31h42.62l-20.86 55.31h53.64l20.86-55.35c110.93-1.89 199.32-93.35 197.43-204.28-.94-55.38-24.71-107.9-65.68-145.17zm-312.33 299.31 113.68-301.55c5.11.48 10.23.69 15.34.69s10.49-.24 15.6-.73h18.66l-113.67 301.59zm103.21 0 111.93-296.73c12.91 3.4 25.32 8.5 36.89 15.16l-106.22 281.57zm180.45-44.21c-22.58 22.73-51.87 37.61-83.54 42.44l92.61-245.64c50.08 59.85 46.14 148.04-9.07 203.2z" fill="#162061"/></svg>