<svg fill="none" height="170" viewBox="0 0 170 170" width="170" xmlns="http://www.w3.org/2000/svg"><path d="m85 170c46.944 0 85-38.056 85-85 0-46.9442-38.056-85-85-85-46.9442 0-85 38.0558-85 85 0 46.944 38.0558 85 85 85z" fill="#004ca8"/><path d="m129.457 127.596c-37.6902 7.614-74.5126-16.813-82.1726-54.2848-3.8316-18.1565.1034-36.291 9.4652-50.9353-28.3857 13.0458-45.1732 44.2703-38.6628 76.3333 7.66 37.4718 44.4824 61.8988 82.1732 54.2848 19.427-3.805 34.994-15.343 45.134-30.757-5.055 2.302-10.109 4.218-15.937 5.359z" fill="#002c7f"/><path d="m80.5418 123.08c-12.4064-1.379-20.2587-9.588-21.1007-20.637-.084-1.102.8201-2 1.9246-2h5.8578c1.1046 0 1.9876.9 2.0929 2 .759 7.922 6.1537 12.604 15.6066 12.604 10.2229 0 15.699-5.476 15.699-12.048 0-18.6205-40.5261-9.1278-40.5261-36.5106 0-9.1276 8.3974-18.6203 20.4459-20.0807v-8.9531c0-1.1046.8954-2 2-2h4.3973c1.1046 0 2 .8954 2 2v8.9531c10.6453 1.717 18.3839 10.2166 19.2659 20.6383.094 1.1006-.811 1.9982-1.915 1.9982h-5.858c-1.1047 0-1.9866-.9002-2.1199-1.9967-.896-7.3661-6.7085-12.6075-13.7542-12.6075-9.1276 0-14.9693 6.2068-14.9693 12.0484 0 18.6203 40.5264 9.1276 40.5264 36.5106 0 9.858-8.032 18.62-21.1759 20.446v8.953c0 1.104-.8954 2-2 2h-4.3973c-1.1046 0-2-.896-2-2z" fill="#fff"/><g clip-rule="evenodd" fill="#bee179" fill-rule="evenodd"><path d="m150.434 115.644 4.46 3.168c1.005.714.9 2.237-.193 2.807l-14.44 7.523c-1.147.598-2.504-.297-2.406-1.586l1.271-16.877c.096-1.28 1.553-1.964 2.599-1.221l4 2.841c10.21-23.2048 6.437-51.2495-11.838-71.0751-24.421-26.4941-65.5683-28.3632-92.2857-4.3391-.3386.3045-.8625.2861-1.1712-.0488l-2.7229-2.954c-.3087-.3349-.285-.8594.0533-1.1642 29.0188-26.14497 73.7505-24.12981 100.2935 4.6654 20.135 21.844 24.056 52.8626 12.38 78.2608z"/><path d="m21.6199 54.526-4.4606-3.1682c-1.0048-.7138-.9001-2.2374.193-2.8069l14.4402-7.5235c1.1467-.5974 2.5035.2971 2.4064 1.5864l-1.2713 16.8772c-.0964 1.2796-1.5531 1.9636-2.5994 1.2205l-3.9995-2.8408c-10.2107 23.2048-6.4371 51.2493 11.8376 71.0753 24.4214 26.494 65.5687 28.363 92.2857 4.339.339-.304.863-.286 1.171.049l2.723 2.954c.309.335.285.859-.053 1.164-29.019 26.145-73.7507 24.13-100.2933-4.665-20.1352-21.844-24.05591-52.863-12.3798-78.261z"/></g></svg>