<svg fill="none" height="300" viewBox="0 0 256 256" width="300" xmlns="http://www.w3.org/2000/svg" xmlns:xlink="http://www.w3.org/1999/xlink"><filter id="a" color-interpolation-filters="sRGB" filterUnits="userSpaceOnUse" height="187.733" width="187.733" x="34.1327" y="38.3998"><feFlood flood-opacity="0" result="BackgroundImageFix"/><feColorMatrix in="SourceAlpha" result="hardAlpha" type="matrix" values="0 0 0 0 0 0 0 0 0 0 0 0 0 0 0 0 0 0 127 0"/><feOffset dy="4.26667"/><feGaussianBlur stdDeviation="4.26667"/><feComposite in2="hardAlpha" operator="out"/><feColorMatrix type="matrix" values="0 0 0 0 0 0 0 0 0 0 0 0 0 0 0 0 0 0 1 0"/><feBlend in2="BackgroundImageFix" mode="normal" result="effect1_dropShadow_564_217705"/><feBlend in="SourceGraphic" in2="effect1_dropShadow_564_217705" mode="normal" result="shape"/></filter><linearGradient id="b" gradientUnits="userSpaceOnUse" x1="128" x2="128" y1="0" y2="256"><stop offset="0" stop-color="#1a1a1a"/><stop offset="1"/></linearGradient><linearGradient id="c" gradientUnits="userSpaceOnUse" x1="128.001" x2="128.001" y1="-.000069" y2="256"><stop offset="0"/><stop offset="1" stop-color="#1a1a1a"/></linearGradient><clipPath id="d"><path d="m0 0h256v256h-256z"/></clipPath><mask id="e" height="256" maskUnits="userSpaceOnUse" width="256" x="0" y="0"><path d="m256 128c0-70.6925-57.308-128-128-128-70.6925 0-128 57.3075-128 128 0 70.692 57.3075 128 128 128 70.692 0 128-57.308 128-128z" fill="#fff"/></mask><g clip-path="url(#d)"><g mask="url(#e)"><path d="m256 128c0-70.6925-57.308-128-128-128-70.6925 0-128 57.3075-128 128 0 70.692 57.3075 128 128 128 70.692 0 128-57.308 128-128z" fill="url(#b)"/><g fill="#fff" filter="url(#a)"><path d="m128.03 155.541c15.193 0 27.51-12.317 27.51-27.51s-12.317-27.51-27.51-27.51-27.51 12.317-27.51 27.51 12.317 27.51 27.51 27.51z"/><path clip-rule="evenodd" d="m148.945 47.5388c-5.691 4.7181-13 7.554-20.969 7.554-7.931 0-15.205-2.8075-20.884-7.4831-6.025-4.9599-15.691-7.071-21.2585-1.6033-13.3929 13.1511-26.6761 26.4349-39.8283 39.8278-5.4665 5.5675-3.356 15.2348 1.6044 21.2588 4.6745 5.679 7.4825 12.954 7.4825 20.884 0 7.97-2.8359 15.278-7.5534 20.97-4.9808 6.008-7.1225 15.667-1.6603 21.239 13.1393 13.405 26.4558 26.656 39.8541 39.803 5.5858 5.482 15.2985 3.353 21.3365-1.627 5.683-4.686 12.966-7.501 20.907-7.501 7.98 0 15.297 2.844 20.992 7.573 6.022 5 15.726 7.16 21.318 1.683 13.409-13.133 26.696-26.42 39.83-39.829 5.477-5.592 3.317-15.297-1.684-21.318-4.729-5.695-7.573-13.012-7.573-20.993 0-7.941 2.816-15.224 7.502-20.907 4.98-6.038 7.109-15.7505 1.627-21.3368-13.147-13.3983-26.398-26.7154-39.803-39.8542-5.573-5.4628-15.232-3.32-21.24 1.6598zm-36.394 23.9279c8.56-8.5604 22.439-8.5604 30.999 0l41.166 41.1663c8.561 8.56 8.561 22.439 0 30.999l-41.166 41.167c-8.56 8.56-22.439 8.56-30.999 0l-41.1656-41.167c-8.5604-8.56-8.5604-22.439 0-30.999z" fill-rule="evenodd"/></g></g><path d="m128.002 4.2666h-.001c-68.3363 0-123.73342 55.3972-123.73342 123.7334v.001c0 68.335 55.39712 123.733 123.73342 123.733h.001c68.335 0 123.733-55.398 123.733-123.733v-.001c0-68.3362-55.398-123.7334-123.733-123.7334z" stroke="url(#c)" stroke-width="8.53333"/></g></svg>